<svg xmlns="http://www.w3.org/2000/svg" xmlns:xlink="http://www.w3.org/1999/xlink" width="100%" height="100%" version="1.1" viewBox="0 0 244 244" xml:space="preserve" style="fill-rule:evenodd;clip-rule:evenodd;stroke-linejoin:round;stroke-miterlimit:1.41421"><g transform="translate(0.000000,244.000000) scale(0.100000,-0.100000)"
fill="#7c4c05" stroke="none">
<path d="M1529 1637 c-37 -13 -86 -36 -109 -52 -70 -48 -150 -170 -150 -226 0
-16 -8 -19 -48 -19 -49 0 -49 0 -61 43 -28 95 -116 193 -217 239 -41 19 -66
23 -154 23 -92 0 -112 -3 -160 -26 -85 -41 -144 -99 -187 -187 -36 -72 -38
-81 -38 -172 0 -82 4 -103 27 -152 35 -76 70 -121 128 -163 171 -126 421 -88
544 83 36 48 76 153 76 197 0 22 4 25 39 25 l38 0 7 -52 c21 -159 157 -291
329 -321 158 -27 335 69 403 218 85 186 26 393 -143 502 -100 64 -213 78 -324
40z m205 -83 c113 -39 199 -162 199 -289 0 -176 -152 -321 -316 -302 -197 24
-319 246 -235 428 65 140 214 210 352 163z m-802 -28 c53 -31 88 -69 121 -130
18 -34 22 -57 22 -136 0 -109 -17 -153 -85 -219 -54 -52 -103 -74 -177 -79
-149 -10 -270 85 -304 240 -13 62 -2 143 28 201 25 50 87 110 138 134 43 21
62 24 130 20 65 -3 89 -8 127 -31z"/>
</g><g transform="translate(0.000000,244.000000) scale(0.100000,-0.100000)"
fill="#fbcb83" stroke="none">
<path d="M1070 2230 c-281 -49 -501 -179 -664 -394 -105 -138 -172 -305 -202
-503 -16 -105 -16 -120 0 -225 36 -249 126 -438 285 -601 165 -170 364 -268
613 -304 111 -16 125 -16 236 0 246 35 421 119 588 279 178 171 274 362 311
621 16 110 16 124 0 235 -35 242 -125 429 -285 594 -161 166 -361 266 -609
303 -120 18 -141 18 -273 -5z m659 -580 c94 -26 149 -59 205 -121 284 -315
-63 -795 -448 -620 -117 53 -209 173 -223 292 -6 49 -6 49 -43 49 l-38 0 -7
-55 c-7 -61 -51 -153 -93 -199 -48 -52 -138 -103 -214 -121 -62 -16 -80 -16
-133 -6 -178 37 -296 156 -334 337 -12 55 -11 68 8 139 26 95 58 150 117 205
152 140 380 138 533 -5 50 -47 111 -150 111 -187 0 -16 6 -19 46 -16 45 3 46
3 64 55 45 128 139 212 285 254 79 22 79 22 164 -1z"/>
<path d="M1562 1555 c-76 -23 -135 -77 -177 -159 -36 -72 -36 -190 1 -264 34
-69 112 -138 177 -157 108 -32 194 -9 277 73 66 66 90 124 90 217 0 93 -24
151 -90 217 -82 81 -174 106 -278 73z"/>
<path d="M696 1545 c-130 -46 -215 -202 -185 -343 13 -66 63 -149 111 -186
143 -108 348 -55 430 113 19 38 23 63 23 136 0 81 -3 95 -30 144 -32 58 -105
120 -164 140 -46 15 -137 13 -185 -4z"/>
</g></svg>
