<svg xmlns="http://www.w3.org/2000/svg" width="244" height="244" clip-rule="evenodd"><metadata id="metadata857">image/svg+xml</metadata><g><title>background</title><rect id="canvas_background" width="582" height="402" x="-1" y="-1" fill="none"/></g><g><title>Layer 1</title><g transform="translate(0.000000,244.000000) scale(0.100000,-0.100000)"
fill="#ffffff" stroke="none">
<path d="M1529 1637 c-37 -13 -86 -36 -109 -52 -70 -48 -150 -170 -150 -226 0
-16 -8 -19 -48 -19 -49 0 -49 0 -61 43 -28 95 -116 193 -217 239 -41 19 -66
23 -154 23 -92 0 -112 -3 -160 -26 -85 -41 -144 -99 -187 -187 -36 -72 -38
-81 -38 -172 0 -82 4 -103 27 -152 35 -76 70 -121 128 -163 171 -126 421 -88
544 83 36 48 76 153 76 197 0 22 4 25 39 25 l38 0 7 -52 c21 -159 157 -291
329 -321 158 -27 335 69 403 218 85 186 26 393 -143 502 -100 64 -213 78 -324
40z m205 -83 c113 -39 199 -162 199 -289 0 -176 -152 -321 -316 -302 -197 24
-319 246 -235 428 65 140 214 210 352 163z m-802 -28 c53 -31 88 -69 121 -130
18 -34 22 -57 22 -136 0 -109 -17 -153 -85 -219 -54 -52 -103 -74 -177 -79
-149 -10 -270 85 -304 240 -13 62 -2 143 28 201 25 50 87 110 138 134 43 21
62 24 130 20 65 -3 89 -8 127 -31z"/>
</g></g></svg>
